<svg xmlns="http://www.w3.org/2000/svg" width="1em" height="1em" viewBox="0 0 24 24"><g fill="none" stroke="white" stroke-linecap="round" stroke-linejoin="round" stroke-width="2.05" color="white"><path d="M11 8h2c2.828 0 4.243 0 5.121.879C19 9.757 19 11.172 19 14s0 4.243-.879 5.121C17.243 20 15.828 20 13 20h-1s-.5 2-4 2c0 0 1-1.009 1-2.017c-1.553-.047-2.48-.22-3.121-.862C5 18.243 5 16.828 5 14s0-4.243.879-5.121C6.757 8 8.172 8 11 8m8 3.5h.5c.935 0 1.402 0 1.75.201a1.5 1.5 0 0 1 .549.549c.201.348.201.815.201 1.75s0 1.402-.201 1.75a1.5 1.5 0 0 1-.549.549c-.348.201-.815.201-1.75.201H19m-14-5h-.5c-.935 0-1.402 0-1.75.201a1.5 1.5 0 0 0-.549.549C2 12.598 2 13.065 2 14s0 1.402.201 1.75a1.5 1.5 0 0 0 .549.549c.348.201.815.201 1.75.201H5m8.5-13a1.5 1.5 0 1 1-3 0a1.5 1.5 0 0 1 3 0M12 5v3m-3 4v1m6-1v1"/><path d="M10 16.5s.667.5 2 .5s2-.5 2-.5"/></g></svg>